<svg width="285" height="60" viewBox="0 0 285 60" fill="none" xmlns="http://www.w3.org/2000/svg">
<circle cx="205.5" cy="29.5" r="22.5" stroke="white" stroke-width="10"/>
<rect x="142" y="16" width="64" height="29" fill="#3D4E5E"/>
<path d="M1.93135 16.4157H18.5313V21.2157H9.13135V25.3757H17.0513V29.6957H9.13135V34.3357H18.4913V39.2157H1.93135V16.4157ZM39.6245 20.8157V39.2157H34.0645L33.3045 36.1357C31.3845 38.4557 29.0911 39.6157 26.4245 39.6157C25.4645 39.6157 24.5578 39.4824 23.7045 39.2157C22.8778 38.949 22.2511 38.5624 21.8245 38.0557C21.5845 37.7624 21.3978 37.029 21.2645 35.8557C21.1578 34.6824 21.1045 32.8957 21.1045 30.4957V20.8157H27.9445V30.4157C27.9445 30.949 27.9578 31.5757 27.9845 32.2957C28.0111 33.0157 28.0911 33.469 28.2245 33.6557C28.4111 33.9224 28.9445 34.0557 29.8245 34.0557L30.4645 34.0157C31.2111 33.989 31.9845 33.8157 32.7845 33.4957V20.8157H39.6245ZM54.3042 20.4157C54.6508 20.4157 55.0108 20.4557 55.3842 20.5357C55.7842 20.6157 56.0775 20.709 56.2642 20.8157C56.2642 21.4024 56.1975 22.3757 56.0642 23.7357C55.9308 25.069 55.8108 26.0157 55.7042 26.5757C55.4375 26.549 54.9442 26.5357 54.2242 26.5357C52.5442 26.5357 51.0508 26.629 49.7442 26.8157V39.2157H42.9042V20.8157H48.6242L49.4242 23.7757H49.4642C50.2375 22.7624 51.0642 21.949 51.9442 21.3357C52.8242 20.7224 53.6108 20.4157 54.3042 20.4157ZM66.9404 39.7357C63.7404 39.7357 61.3404 38.989 59.7404 37.4957C58.1671 35.9757 57.3804 33.589 57.3804 30.3357C57.3804 28.549 57.5404 26.989 57.8604 25.6557C58.2071 24.2957 58.6204 23.349 59.1004 22.8157C59.7137 22.1224 60.8337 21.549 62.4604 21.0957C64.1137 20.6424 65.6604 20.4157 67.1004 20.4157C70.5404 20.4157 72.9937 21.149 74.4604 22.6157C75.9271 24.0824 76.6604 26.429 76.6604 29.6557C76.6604 33.1224 75.8737 35.669 74.3004 37.2957C72.7271 38.9224 70.2737 39.7357 66.9404 39.7357ZM67.0604 35.0557C68.1004 35.0557 68.7804 34.6957 69.1004 33.9757C69.4204 33.229 69.5804 31.9224 69.5804 30.0557C69.5804 28.749 69.5137 27.749 69.3804 27.0557C69.2471 26.3357 68.9937 25.8157 68.6204 25.4957C68.2737 25.149 67.7271 24.9757 66.9804 24.9757C65.9137 24.9757 65.3004 25.069 65.1404 25.2557C64.9271 25.4424 64.7537 26.029 64.6204 27.0157C64.4871 28.0024 64.4204 29.029 64.4204 30.0957C64.4204 31.909 64.5937 33.189 64.9404 33.9357C65.3137 34.6824 66.0204 35.0557 67.0604 35.0557ZM93.0713 39.2157H84.0713L78.1913 16.4157H85.8713L88.9113 33.1757H89.1113L92.3513 16.4157H99.8713L103.191 33.1757H103.311L106.391 16.4157H113.751L107.871 39.2157H98.9113L96.1913 24.6557H95.9513L93.0713 39.2157ZM125.583 39.2157L124.943 36.6957C123.716 38.6957 122.01 39.6957 119.823 39.6957C118.036 39.6957 116.57 39.2024 115.423 38.2157C114.303 37.2024 113.743 35.789 113.743 33.9757C113.743 32.8557 114.063 31.8824 114.703 31.0557C115.37 30.2024 116.276 29.6024 117.423 29.2557C118.916 28.829 121.223 28.589 124.343 28.5357C124.343 26.7757 124.263 25.8424 124.103 25.7357C123.97 25.629 123.543 25.5757 122.823 25.5757C122.37 25.5757 121.743 25.6024 120.943 25.6557C119.663 25.709 117.93 25.8557 115.743 26.0957C115.53 24.6557 115.37 23.109 115.263 21.4557C116.676 21.1624 118.156 20.9224 119.703 20.7357C121.25 20.5224 122.636 20.4157 123.863 20.4157C125.996 20.4157 127.596 20.7757 128.663 21.4957C129.73 22.189 130.423 23.109 130.743 24.2557C131.063 25.4024 131.21 26.8557 131.183 28.6157L131.143 34.4957L131.263 39.2157H125.583ZM122.143 35.2157C122.836 35.2157 123.57 35.0824 124.343 34.8157V31.8557H124.023C122.05 31.8557 120.956 31.9624 120.743 32.1757C120.61 32.309 120.503 32.509 120.423 32.7757C120.37 33.0424 120.343 33.2957 120.343 33.5357C120.343 34.1757 120.49 34.6157 120.783 34.8557C121.076 35.0957 121.53 35.2157 122.143 35.2157ZM152.071 21.9757C152.311 22.269 152.485 23.0024 152.591 24.1757C152.725 25.349 152.791 27.1357 152.791 29.5357V39.2157H145.951V29.6157V27.9757C145.951 27.1224 145.885 26.589 145.751 26.3757C145.538 26.109 145.045 25.9757 144.271 25.9757C143.898 25.9757 143.618 25.989 143.431 26.0157C142.685 26.0424 141.911 26.2157 141.111 26.5357V39.2157H134.271V20.8157H139.831L140.591 23.8957C142.511 21.5757 144.805 20.4157 147.471 20.4157C148.431 20.4157 149.325 20.549 150.151 20.8157C151.005 21.0824 151.645 21.469 152.071 21.9757ZM174.271 14.9357V39.2157H168.631L168.071 36.1357C167.538 37.1757 166.751 38.0024 165.711 38.6157C164.671 39.229 163.498 39.5357 162.191 39.5357C160.111 39.5357 158.444 38.789 157.191 37.2957C155.964 35.8024 155.351 33.5624 155.351 30.5757C155.351 28.309 155.618 26.4424 156.151 24.9757C156.684 23.509 157.311 22.4557 158.031 21.8157C158.484 21.4157 159.404 21.0824 160.791 20.8157C162.204 20.549 163.458 20.4157 164.551 20.4157C165.511 20.4157 166.498 20.509 167.511 20.6957C167.431 19.4157 167.391 18.709 167.391 18.5757V15.2157L174.271 14.9357ZM165.191 34.1757C165.911 34.1757 166.658 34.0557 167.431 33.8157V25.1357C166.658 25.029 165.804 24.9757 164.871 24.9757C164.071 24.9757 163.564 25.0424 163.351 25.1757C163.058 25.389 162.818 26.0024 162.631 27.0157C162.471 28.0024 162.391 29.0424 162.391 30.1357C162.391 31.7624 162.631 32.8424 163.111 33.3757C163.618 33.909 164.311 34.1757 165.191 34.1757ZM188.713 34.4157C189.379 34.4157 190.619 34.349 192.433 34.2157C192.673 34.2157 193.113 34.189 193.753 34.1357L194.353 38.2557C192.299 39.2157 189.633 39.6957 186.353 39.6957C183.286 39.6957 180.926 38.9224 179.273 37.3757C177.646 35.829 176.833 33.4957 176.833 30.3757C176.833 28.7757 177.033 27.229 177.433 25.7357C177.859 24.2424 178.339 23.2024 178.873 22.6157C179.433 22.029 180.473 21.5224 181.993 21.0957C183.513 20.669 185.019 20.4557 186.513 20.4557C188.913 20.4557 190.713 20.8824 191.913 21.7357C193.113 22.589 193.899 23.7757 194.273 25.2957C194.646 26.789 194.833 28.8024 194.833 31.3357C193.019 31.4424 191.246 31.4957 189.513 31.4957H183.833C183.833 32.349 184.006 32.989 184.353 33.4157C184.726 33.8424 185.246 34.1224 185.913 34.2557C186.579 34.3624 187.513 34.4157 188.713 34.4157ZM184.233 25.2157C184.073 25.2957 183.953 25.6424 183.873 26.2557C183.793 26.869 183.739 27.5624 183.713 28.3357H185.793C187.046 28.3357 187.953 28.3224 188.513 28.2957C188.513 27.0157 188.326 26.109 187.953 25.5757C187.606 25.0424 186.993 24.7757 186.113 24.7757C185.393 24.7757 184.766 24.9224 184.233 25.2157ZM208.64 20.4157C208.987 20.4157 209.347 20.4557 209.72 20.5357C210.12 20.6157 210.413 20.709 210.6 20.8157C210.6 21.4024 210.533 22.3757 210.4 23.7357C210.267 25.069 210.147 26.0157 210.04 26.5757C209.773 26.549 209.28 26.5357 208.56 26.5357C206.88 26.5357 205.387 26.629 204.08 26.8157V39.2157H197.24V20.8157H202.96L203.76 23.7757H203.8C204.573 22.7624 205.4 21.949 206.28 21.3357C207.16 20.7224 207.947 20.4157 208.64 20.4157Z" fill="white"/>
</svg>
